<?xml version="1.0" encoding="UTF-8"?><svg id="Layer_1" xmlns="http://www.w3.org/2000/svg" xmlns:xlink="http://www.w3.org/1999/xlink" viewBox="0 0 1005.9 965.5"><defs><style>.cls-1{fill:url(#linear-gradient);}.cls-2{fill:#fcee70;font-family:SegoeScript, 'Segoe Script';font-size:161.63px;}</style><linearGradient id="linear-gradient" x1="1.08" y1="482.85" x2="1004.83" y2="482.85" gradientTransform="matrix(1, 0, 0, 1, 0, 0)" gradientUnits="userSpaceOnUse"><stop offset="0" stop-color="#fff"/><stop offset="1" stop-color="#662d91"/></linearGradient></defs><g><polygon class="cls-1" points="258.97 617.5 1.08 380.03 346.44 319.78 492.6 1.13 656.62 310.96 1004.83 351.5 760.85 603.24 829.91 946.94 515.09 792.68 209.55 964.57 258.97 617.5"/><path d="M492.63,2.26l163.42,308.71,.25,.46,.52,.06,346.95,40.39-243.1,250.82-.37,.38,.1,.52,68.8,342.45-313.67-153.69-.47-.23-.46,.26-304.43,171.26,49.24-345.81,.07-.52-.39-.36L2.17,380.35l344.1-60.03,.52-.09,.22-.48L492.63,2.26m-.06-2.26l-146.47,319.33L0,379.71l258.44,237.98-49.53,347.81,306.2-172.25,315.48,154.58-69.2-344.44,244.51-252.27-348.97-40.62L492.56,0h0Z"/></g><text class="cls-2" transform="translate(245.61 534.12) scale(1.24 1)"><tspan x="0" y="0">Jana</tspan></text></svg>