<?xml version="1.0" encoding="utf-8"?>
<!-- Generator: Adobe Illustrator 26.3.1, SVG Export Plug-In . SVG Version: 6.00 Build 0)  -->
<svg version="1.1" xmlns="http://www.w3.org/2000/svg" xmlns:xlink="http://www.w3.org/1999/xlink" x="0px" y="0px"
	 viewBox="0 0 512 512" style="enable-background:new 0 0 512 512;" xml:space="preserve">
<g id="base_O" fill="#490900">
	<g>
		<path d="M247.97,395.1c-21.42,0-41.27-3.64-59.53-10.92c-18.27-7.27-34.2-17.57-47.79-30.9c-13.6-13.32-24.1-28.84-31.52-46.56
			c-7.42-17.72-11.12-37.01-11.12-57.89c0-20.87,3.71-40.17,11.12-57.89s17.92-33.23,31.52-46.56c13.6-13.32,29.52-23.62,47.79-30.9
			c18.26-7.27,38.11-10.92,59.53-10.92c21.42,0,41.27,3.64,59.53,10.92c18.26,7.28,34.12,17.51,47.59,30.69
			c13.45,13.18,23.96,28.63,31.52,46.35c7.55,17.72,11.33,37.15,11.33,58.3c0,21.15-3.78,40.58-11.33,58.3
			c-7.56,17.71-18.06,33.17-31.52,46.35c-13.46,13.18-29.32,23.42-47.59,30.69C289.24,391.46,269.4,395.1,247.97,395.1z
			 M247.97,375.73c18.4,0,35.43-3.15,51.09-9.48c15.66-6.31,29.25-15.24,40.79-26.78c11.54-11.54,20.53-24.99,26.99-40.38
			c6.45-15.38,9.68-32.13,9.68-50.26c0-18.4-3.23-35.23-9.68-50.47c-6.46-15.24-15.45-28.63-26.99-40.17
			c-11.54-11.54-25.13-20.46-40.79-26.78c-15.66-6.31-32.69-9.48-51.09-9.48c-18.4,0-35.43,3.16-51.09,9.48
			c-15.66,6.32-29.32,15.24-40.99,26.78c-11.68,11.54-20.74,24.93-27.19,40.17c-6.46,15.24-9.68,32.07-9.68,50.47
			c0,18.13,3.23,34.88,9.68,50.26c6.45,15.39,15.51,28.84,27.19,40.38c11.67,11.54,25.34,20.46,40.99,26.78
			C212.54,372.58,229.57,375.73,247.97,375.73z"/>
	</g>
</g>
<g id="base_S" fill="#490900">
	<g>
		<path d="M249.71,393.82c-21.06,0-40.97-3.57-59.74-10.73c-18.77-7.15-33.28-16.4-43.54-27.74l9.32-15.39
			c9.72,9.99,23.02,18.43,39.89,25.31c16.87,6.88,34.76,10.33,53.66,10.33c18.9,0,34.36-2.49,46.37-7.49
			c12.01-4.99,20.92-11.68,26.73-20.05c5.8-8.37,8.71-17.68,8.71-27.94c0-12.15-3.24-21.87-9.72-29.16
			c-6.48-7.29-14.98-13.09-25.51-17.42c-10.53-4.32-22.01-7.96-34.42-10.93c-12.42-2.97-24.98-6.14-37.67-9.52
			c-12.69-3.37-24.3-7.76-34.83-13.16c-10.53-5.4-18.97-12.76-25.31-22.07c-6.35-9.32-9.52-21.4-9.52-36.25
			c0-13.5,3.51-25.92,10.53-37.26c7.02-11.34,17.95-20.52,32.81-27.54c14.85-7.02,33.88-10.53,57.1-10.53
			c15.66,0,31.12,2.3,46.37,6.88c15.25,4.59,28.28,10.8,39.08,18.63l-7.7,16.6c-11.88-8.1-24.64-14.11-38.27-18.02
			c-13.64-3.91-26.8-5.87-39.49-5.87c-18.09,0-33.08,2.57-44.96,7.69c-11.88,5.13-20.65,11.95-26.33,20.45
			c-5.67,8.5-8.5,18.02-8.5,28.55c0,12.15,3.17,21.87,9.52,29.16c6.34,7.29,14.78,13.1,25.31,17.42
			c10.53,4.32,22.14,7.97,34.83,10.94c12.69,2.97,25.24,6.14,37.66,9.52c12.42,3.38,23.9,7.76,34.43,13.16
			c10.53,5.4,19.04,12.69,25.51,21.87c6.48,9.18,9.72,21.06,9.72,35.64c0,13.23-3.64,25.58-10.93,37.06
			c-7.29,11.48-18.43,20.66-33.41,27.54C292.44,390.38,273.2,393.82,249.71,393.82z"/>
	</g>
</g>
</svg>
