<?xml version="1.0" encoding="utf-8"?>
<!-- Generator: Adobe Illustrator 26.3.1, SVG Export Plug-In . SVG Version: 6.00 Build 0)  -->
<svg version="1.1" xmlns="http://www.w3.org/2000/svg" xmlns:xlink="http://www.w3.org/1999/xlink" x="0px" y="0px"
	 viewBox="0 0 512 512" style="enable-background:new 0 0 512 512;" xml:space="preserve">
<style type="text/css">
	.st0{display:none;}
	.st1{stroke:#1A0609;stroke-miterlimit:10;}
</style>
<g id="base_O" fill="#1A0609">
	<g>
		<path d="M204.61,381.04V92.64h103.41c24.17,0,44.91,3.85,62.21,11.54c17.3,7.69,30.62,18.75,39.96,33.17
			c9.33,14.42,14.01,31.93,14.01,52.53c0,20.05-4.67,37.29-14.01,51.71c-9.34,14.42-22.66,25.54-39.96,33.37
			c-17.3,7.83-38.04,11.74-62.21,11.74h-91.88l9.48-9.89v104.24H204.61z M225.62,278.04l-9.48-9.89h91.88
			c31.04,0,54.59-6.86,70.66-20.6c16.07-13.73,24.1-32.96,24.1-57.68c0-24.99-8.03-44.29-24.1-57.89
			c-16.07-13.6-39.62-20.39-70.66-20.39h-91.88l9.48-10.3V278.04z M404.84,381.04l-74.98-104.65h23.9l74.98,104.65H404.84z"/>
	</g>
</g>
<g id="base_S" fill="#1A0609">
	<g>
		<path d="M140.44,264.19c-9.21,0-17.81-2.14-25.81-6.42c-8-4.28-14.42-10.22-19.27-17.81l7.51-8.24
			c4.68,6.95,10.22,12.24,16.6,15.87c6.38,3.63,13.37,5.45,20.96,5.45c22.45,0,33.68-13.33,33.68-39.99V104.5H111.6V93.35h74.88
			v119.71c0,16.96-3.88,29.73-11.63,38.29C167.09,259.92,155.62,264.19,140.44,264.19z"/>
	</g>
</g>
<g id="Layer_6" fill="#1A0609">
	<g>
		<path d="M92.5,394.5v-318h350v318H92.5z M102.5,377.69l322,2.51V92.5h-322V377.69z"/>
		<path d="M442,77v317H93V77H442 M425,380.7v-1.01V93v-1h-1H103h-1v1v284.19v0.99l0.99,0.01l321,2.5L425,380.7 M443,76H92v319h351
			V76L443,76z M424,379.69l-321-2.5V93h321V379.69L424,379.69z"/>
	</g>
	<path class="st1" d="M429,93"/>
</g>
</svg>
